<svg xmlns="http://www.w3.org/2000/svg" viewBox="0 0 1200 1500" role="img" aria-label="Marvin Buchwald profile">
  <defs>
    <linearGradient id="bg" x1="0" y1="0" x2="1" y2="1">
      <stop offset="0%" stop-color="#E8C3A3"/>
      <stop offset="45%" stop-color="#D99A6B"/>
      <stop offset="100%" stop-color="#A1643F"/>
    </linearGradient>
    <radialGradient id="halo" cx="0.3" cy="0.2" r="0.9">
      <stop offset="0%" stop-color="#FFF2E5" stop-opacity="0.8"/>
      <stop offset="100%" stop-color="#FFF2E5" stop-opacity="0"/>
    </radialGradient>
    <filter id="grain" x="-10%" y="-10%" width="120%" height="120%">
      <feTurbulence type="fractalNoise" baseFrequency="0.9" numOctaves="2" stitchTiles="stitch"/>
      <feColorMatrix type="saturate" values="0"/>
      <feComponentTransfer>
        <feFuncA type="table" tableValues="0 0.04"/>
      </feComponentTransfer>
    </filter>
  </defs>

  <rect width="1200" height="1500" fill="url(#bg)"/>
  <rect width="1200" height="1500" fill="url(#halo)"/>
  <g opacity="0.2">
    <circle cx="210" cy="280" r="150" fill="#F8E4D2"/>
    <circle cx="980" cy="430" r="230" fill="#8E5032"/>
    <circle cx="890" cy="1180" r="290" fill="#E7B892"/>
  </g>

  <g>
    <path d="M205 1348C188 1118 350 970 601 970C852 970 1008 1118 995 1348H205Z" fill="#41281C"/>
    <ellipse cx="600" cy="663" rx="248" ry="305" fill="#F0C7A6"/>
    <path d="M349 689C349 465 454 305 601 305C748 305 853 465 853 689C815 617 762 579 700 579H502C440 579 387 617 349 689Z" fill="#2E1D14"/>
    <ellipse cx="510" cy="694" rx="18" ry="12" fill="#3D2A1E"/>
    <ellipse cx="690" cy="694" rx="18" ry="12" fill="#3D2A1E"/>
    <path d="M522 823C556 856 643 856 678 823" stroke="#9D6544" stroke-width="18" fill="none" stroke-linecap="round"/>
    <path d="M450 1015C501 1073 703 1073 754 1015" stroke="#DDAF87" stroke-width="22" fill="none" stroke-linecap="round"/>
  </g>

  <g fill="#FFF5EC" opacity="0.9">
    <text x="86" y="130" font-family="Instrument Serif, serif" font-size="58">Marvin Buchwald</text>
    <text x="86" y="192" font-family="Manrope, sans-serif" font-size="28" letter-spacing="4">DESIGN AND DEVELOPMENT</text>
  </g>

  <rect width="1200" height="1500" filter="url(#grain)"/>
</svg>
