<svg xmlns="http://www.w3.org/2000/svg" viewBox="0 0 1200 1500" role="img" aria-label="Vincent May profile">
  <defs>
    <linearGradient id="bg" x1="0" y1="0" x2="1" y2="1">
      <stop offset="0%" stop-color="#F3DCC8"/>
      <stop offset="50%" stop-color="#C88960"/>
      <stop offset="100%" stop-color="#6F412B"/>
    </linearGradient>
    <radialGradient id="beam" cx="0.72" cy="0.18" r="0.8">
      <stop offset="0%" stop-color="#FFEBD8" stop-opacity="0.88"/>
      <stop offset="100%" stop-color="#FFEBD8" stop-opacity="0"/>
    </radialGradient>
    <filter id="grain" x="-10%" y="-10%" width="120%" height="120%">
      <feTurbulence type="fractalNoise" baseFrequency="0.95" numOctaves="2" stitchTiles="stitch"/>
      <feColorMatrix type="saturate" values="0"/>
      <feComponentTransfer>
        <feFuncA type="table" tableValues="0 0.045"/>
      </feComponentTransfer>
    </filter>
  </defs>

  <rect width="1200" height="1500" fill="url(#bg)"/>
  <rect width="1200" height="1500" fill="url(#beam)"/>
  <g opacity="0.22">
    <path d="M-120 520C196 360 408 302 697 336C1022 374 1228 552 1360 860V1600H-120V520Z" fill="#623620"/>
    <circle cx="275" cy="250" r="210" fill="#F8E8D8"/>
    <circle cx="1010" cy="1050" r="260" fill="#A76545"/>
  </g>

  <g>
    <path d="M180 1360C172 1112 354 952 603 952C855 952 1030 1112 1022 1360H180Z" fill="#2B1A12"/>
    <ellipse cx="603" cy="662" rx="246" ry="300" fill="#EEC09A"/>
    <path d="M352 700C330 482 448 288 603 288C768 288 879 493 854 735C814 634 745 582 662 582H522C449 582 392 624 352 700Z" fill="#20140E"/>
    <ellipse cx="510" cy="686" rx="18" ry="12" fill="#3B271C"/>
    <ellipse cx="694" cy="686" rx="18" ry="12" fill="#3B271C"/>
    <path d="M527 816C562 849 645 849 680 816" stroke="#935C3C" stroke-width="18" fill="none" stroke-linecap="round"/>
    <path d="M447 1002C497 1064 710 1064 760 1002" stroke="#D9A780" stroke-width="20" fill="none" stroke-linecap="round"/>
  </g>

  <g fill="#FFF6EE" opacity="0.92">
    <text x="84" y="130" font-family="Instrument Serif, serif" font-size="58">Vincent May</text>
    <text x="84" y="192" font-family="Manrope, sans-serif" font-size="28" letter-spacing="4">ENGINEERING AND TECHNOLOGY</text>
  </g>

  <rect width="1200" height="1500" filter="url(#grain)"/>
</svg>
